<svg width="300" height="300" viewBox="0 0 300 300" fill="none" xmlns="http://www.w3.org/2000/svg">
<path d="M94.7425 113.503C105.098 113.503 113.493 105.108 113.493 94.7526C113.493 84.3972 105.098 76.0026 94.7425 76.0026C84.3872 76.0026 75.9925 84.3972 75.9925 94.7526C75.9925 105.108 84.3872 113.503 94.7425 113.503Z" fill="black"/>
<path fill-rule="evenodd" clip-rule="evenodd" d="M139.493 25.2526H138.493L63.4925 30.6276C46.0245 32.1906 32.1806 46.0345 30.6175 63.5026L25.1175 138.503C24.4269 145.404 26.8037 152.26 31.6175 157.253L137.118 262.753C141.574 267.045 147.557 269.384 153.743 269.253C163.206 269.17 172.23 265.245 178.743 258.378L258.367 178.878C270.736 168.623 272.677 150.379 262.743 137.753L156.618 31.5026C152.139 27.2451 146.171 24.9117 139.993 25.0026L139.493 25.2526ZM139.993 45.3776C140.725 45.1473 141.51 45.1473 142.243 45.3776L247.868 151.003C248.889 155.687 247.141 160.544 243.368 163.503L163.493 243.378C160.861 246.232 157.24 247.976 153.368 248.253H151.243L45.9925 142.128C45.6563 141.242 45.6563 140.263 45.9925 139.378L51.4925 64.3776C52.4738 57.5752 57.7208 52.1768 64.4925 51.0026L139.493 45.6276L139.993 45.3776Z" fill="black"/>
</svg>
