<svg width="300" height="300" viewBox="0 0 300 300" fill="none" xmlns="http://www.w3.org/2000/svg">
<path d="M150.625 137H111.625C106.447 137 102.25 132.803 102.25 127.625C102.25 122.447 106.447 118.25 111.625 118.25H150.625C155.803 118.25 160 122.447 160 127.625C160 132.803 155.803 137 150.625 137Z" fill="white"/>
<path d="M111.625 157.125H188.375C193.553 157.125 197.75 161.322 197.75 166.5C197.75 171.678 193.553 175.875 188.375 175.875H111.625C106.447 175.875 102.25 171.678 102.25 166.5C102.25 161.322 106.447 157.125 111.625 157.125Z" fill="white"/>
<path d="M177.875 193.75H111.625C106.447 193.75 102.25 197.947 102.25 203.125C102.25 208.303 106.447 212.5 111.625 212.5H177.875C183.053 212.5 187.25 208.303 187.25 203.125C187.25 197.947 183.053 193.75 177.875 193.75Z" fill="white"/>
<path fill-rule="evenodd" clip-rule="evenodd" d="M178.375 25C188.49 24.986 196.843 32.8991 197.375 43.0001C227.061 46.3379 249.62 71.2539 250 101.125V227.25C249.931 260.013 223.388 286.556 190.625 286.625H109.375C76.6116 286.556 50.0688 260.013 50 227.25V101.125C50.3802 71.2539 72.9385 46.3379 102.625 43.0001C103.218 32.9274 111.535 25.0485 121.625 25H178.375ZM178.625 43.0001H121.625V57.8751H178.625V43.0001ZM231.25 227.25C231.25 249.707 213.082 267.931 190.625 268H109.375C86.9182 267.931 68.7499 249.707 68.75 227.25V101.125C68.7997 81.2359 83.242 64.3073 102.875 61.1251C104.409 70.267 112.355 76.9416 121.625 76.8751H178.375C187.645 76.9416 195.59 70.267 197.125 61.1251C216.758 64.3073 231.2 81.2359 231.25 101.125V227.25Z" fill="white"/>
</svg>
